<?xml version="1.0" encoding="UTF-8"?>
<svg version="1.1" xmlns="http://www.w3.org/2000/svg" width="100" height="100">
<path d="M0 0 C33 0 66 0 100 0 C100 33 100 66 100 100 C67 100 34 100 0 100 C0 67 0 34 0 0 Z " fill="#020202" transform="translate(0,0)"/>
<path d="M0 0 C4.57875 -0.103125 9.1575 -0.20625 13.875 -0.3125 C16.0094458 -0.38078003 16.0094458 -0.38078003 18.18701172 -0.45043945 C27.6104524 -0.5525388 34.26280175 0.91388587 41.47265625 7.1328125 C41.99730469 7.79023438 42.52195313 8.44765625 43.0625 9.125 C43.61035156 9.78757812 44.15820312 10.45015625 44.72265625 11.1328125 C47.44472373 15.11185916 47.47117895 19.34817876 47 24 C44.92937225 30.42984407 41.88273162 34.2452938 36.125 37.75 C28.96624629 40.61350148 21.58981921 40.08527887 14 40 C14 44.62 14 49.24 14 54 C9.38 54 4.76 54 0 54 C0 36.18 0 18.36 0 0 Z " fill="#F0F2F2" transform="translate(4,23)"/>
<path d="M0 0 C0.73855225 0.00257812 1.47710449 0.00515625 2.23803711 0.0078125 C9.09937363 0.24685743 14.19862529 2.59635658 19.75 6.625 C19.42 7.945 19.09 9.265 18.75 10.625 C14.56072483 10.625 13.62570432 10.16413271 10.1875 8.125 C4.67693587 5.26797192 -0.12182754 4.55713949 -6.25 5.625 C-9.50883336 7.02350134 -11.7485399 9.1235399 -14.25 11.625 C-14.89025389 17.19149411 -14.89025389 17.19149411 -12.5625 22 C-6.82611075 26.03097623 -0.04593071 26.74695355 6.71289062 27.94921875 C13.00189384 29.17221859 17.46616694 30.80827256 21.625 35.9375 C23.14547535 39.56974666 23.34776297 41.70633167 22.75 45.625 C20.12804265 50.75366382 16.47081433 54.70706195 11.15234375 57.00390625 C3.4205672 59.00285336 -5.24019033 58.60314093 -12.25 54.625 C-19.83876737 49.87203518 -19.83876737 49.87203518 -20.97265625 46.43359375 C-21.06417969 45.83675781 -21.15570313 45.23992187 -21.25 44.625 C-19.625 43.8125 -19.625 43.8125 -17.25 43.625 C-15.76344775 44.8142418 -14.28242421 46.0128025 -12.859375 47.27734375 C-7.2336385 51.98821533 -1.38118878 52.14741239 5.7109375 51.984375 C9.90581939 51.48832213 11.70375485 50.50658325 14.75 47.625 C17.08043558 44.12934664 17.33763244 42.7384271 16.75 38.625 C10.76580064 32.28878891 2.60489841 32.16601672 -5.59375 31.3828125 C-11.00320258 30.26162254 -14.19229928 27.63671374 -18.125 23.875 C-20.24653003 20.63030701 -21.00627831 18.60208854 -20.73046875 14.7109375 C-19.45495813 9.17335483 -16.69887251 5.62902756 -12.08203125 2.4296875 C-8.06980609 0.27188746 -4.50159257 -0.06554474 0 0 Z " fill="#E2E3E4" transform="translate(73.25,21.375)"/>
<path d="M0 0 C13.03275333 -0.60900716 13.03275333 -0.60900716 17.375 2.125 C19.28955397 5.51228779 19.73213349 7.17663624 19 11 C17.1329009 13.30275556 15.64352259 14.67823871 13 16 C8.66396021 16.1393329 4.33919329 16.04254111 0 16 C0 10.72 0 5.44 0 0 Z " fill="#0C0C0C" transform="translate(18,35)"/>
<path d="M0 0 C2.60892812 1.42274448 5.04958329 2.90027636 7.453125 4.64453125 C7.123125 5.96453125 6.793125 7.28453125 6.453125 8.64453125 C2.26384983 8.64453125 1.32882932 8.18366396 -2.109375 6.14453125 C-7.61324922 3.29097165 -12.42477677 2.5647281 -18.546875 3.64453125 C-21.94965312 5.43886778 -21.94965312 5.43886778 -24.546875 7.64453125 C-26.73271785 8.37314553 -28.2579749 8.64453125 -30.546875 8.64453125 C-29.7409342 5.11854027 -28.27792541 3.01937497 -25.484375 0.83203125 C-18.16589418 -3.36140484 -7.71804003 -2.9495153 0 0 Z " fill="#DCDDDE" transform="translate(85.546875,23.35546875)"/>
</svg>
